<svg width="32" height="44" viewBox="0 0 32 44" fill="none" xmlns="http://www.w3.org/2000/svg">
<path d="M3.625 0.125C1.89648 0.125 0.5 1.52148 0.5 3.25V40.75C0.5 42.4785 1.89648 43.875 3.625 43.875H19.25C26.1543 43.875 31.75 38.2793 31.75 31.375C31.75 26.834 29.3281 22.8496 25.6953 20.6621C27.5215 18.4844 28.625 15.6816 28.625 12.625C28.625 5.7207 23.0293 0.125 16.125 0.125H3.625ZM16.125 18.875H6.75V6.375H16.125C19.5723 6.375 22.375 9.17773 22.375 12.625C22.375 16.0723 19.5723 18.875 16.125 18.875ZM6.75 25.125H19.25C22.6973 25.125 25.5 27.9277 25.5 31.375C25.5 34.8223 22.6973 37.625 19.25 37.625H6.75V25.125Z" fill="white"/>
</svg>
