<svg width="20" height="19" viewBox="0 0 20 19" fill="none" xmlns="http://www.w3.org/2000/svg">
<path d="M1.11499 17.586L4.70099 14H16.115C16.6454 14 17.1541 13.7893 17.5292 13.4142C17.9043 13.0391 18.115 12.5304 18.115 12V3C18.115 2.46957 17.9043 1.96086 17.5292 1.58579C17.1541 1.21071 16.6454 1 16.115 1H3.11499C2.58456 1 2.07585 1.21071 1.70078 1.58579C1.3257 1.96086 1.11499 2.46957 1.11499 3V17.586ZM1.11499 19H0.11499V3C0.11499 2.20435 0.431061 1.44129 0.99367 0.87868C1.55628 0.316071 2.31934 0 3.11499 0H16.115C16.9106 0 17.6737 0.316071 18.2363 0.87868C18.7989 1.44129 19.115 2.20435 19.115 3V12C19.115 12.7956 18.7989 13.5587 18.2363 14.1213C17.6737 14.6839 16.9106 15 16.115 15H5.11499L1.11499 19ZM4.11499 4H15.115V5H4.11499V4ZM4.11499 7H15.115V8H4.11499V7ZM4.11499 10H12.115V11H4.11499V10Z" fill="black"/>
</svg>
