<svg width="22" height="22" viewBox="0 0 22 22" fill="none" xmlns="http://www.w3.org/2000/svg">
<path d="M15.1987 12.0258C15.1475 12.0784 14.954 12.3033 14.7737 12.4884C13.717 13.652 10.9603 15.5567 9.5174 16.138C9.29827 16.2314 8.74428 16.4292 8.44829 16.4419C8.16466 16.4419 7.89429 16.3766 7.63629 16.2441C7.31468 16.0591 7.05668 15.768 6.91531 15.4242C6.8243 15.1857 6.68293 14.4719 6.68293 14.4592C6.54156 13.6783 6.46381 12.4094 6.46381 11.0073C6.46381 9.67128 6.54156 8.45412 6.65731 7.66142C6.67056 7.64872 6.81193 6.7617 6.96655 6.45786C7.25018 5.90279 7.80417 5.55814 8.39704 5.55814H8.44829C8.8344 5.57175 9.6464 5.9164 9.6464 5.9291C11.0115 6.51138 13.7046 8.32261 14.787 9.52617C14.787 9.52617 15.0918 9.83545 15.2243 10.0286C15.4311 10.3062 15.5336 10.6499 15.5336 10.9937C15.5336 11.3773 15.4178 11.7347 15.1987 12.0258Z" fill="#008AA7"/>
</svg>
