<svg width="24" height="24" viewBox="0 0 24 24" fill="none" xmlns="http://www.w3.org/2000/svg">
<path fill-rule="evenodd" clip-rule="evenodd" d="M15.9167 21.6005H8.0735C4.6847 21.6005 2.3999 19.4203 2.3999 16.1669V7.84368C2.3999 4.58928 4.6847 2.40048 8.0735 2.40048H15.9167C19.3151 2.40048 21.5999 4.58928 21.5999 7.84368V16.1669C21.5999 19.4203 19.3151 21.6005 15.9167 21.6005ZM14.1791 11.2805H8.0831C7.6799 11.2805 7.3631 11.6069 7.3631 12.0005C7.3631 12.4037 7.6799 12.7205 8.0831 12.7205H14.1791L11.7983 15.0917C11.6639 15.2261 11.5871 15.4181 11.5871 15.6005C11.5871 15.7819 11.6639 15.9653 11.7983 16.1093C12.0767 16.3877 12.5375 16.3877 12.8159 16.1093L16.4351 12.5093C16.7039 12.2405 16.7039 11.7605 16.4351 11.4917L12.8159 7.89168C12.5375 7.61328 12.0767 7.61328 11.7983 7.89168C11.5199 8.17968 11.5199 8.63088 11.7983 8.91888L14.1791 11.2805Z" fill="white"/>
</svg>
