<svg width="24" height="24" viewBox="0 0 24 24" fill="none" xmlns="http://www.w3.org/2000/svg">
<path fill-rule="evenodd" clip-rule="evenodd" d="M21.6 11.8911L21.6 16.7288C21.6 19.1477 19.68 21.1205 17.3376 21.1205L6.66243 21.1205C4.31044 21.1205 2.40004 19.1477 2.40004 16.709L2.40004 11.8812C2.40004 9.46233 4.31044 7.47965 6.65284 7.47966L11.2608 7.47966L11.2608 13.6259L9.72484 12.0398C9.43684 11.7424 8.96644 11.7424 8.67844 12.0398C8.53444 12.1885 8.46724 12.3868 8.46724 12.585C8.46724 12.7734 8.53444 12.9717 8.67844 13.1204L11.472 16.0151C11.6064 16.1638 11.7984 16.2431 12 16.2431C12.192 16.2431 12.384 16.1638 12.5184 16.0151L15.312 13.1204C15.6 12.823 15.6 12.3372 15.312 12.0398C15.024 11.7424 14.5536 11.7424 14.2656 12.0398L12.7392 13.6259L12.7392 7.47966L17.328 7.47966C19.68 7.47966 21.6 9.46233 21.6 11.8911ZM12.0001 2.88046C12.4033 2.88046 12.7393 3.22148 12.7393 3.63071L12.7393 7.47936L11.2609 7.47936L11.2609 3.63071C11.2609 3.22148 11.5873 2.88046 12.0001 2.88046Z" fill="white"/>
</svg>
