<svg width="16" height="20" viewBox="0 0 16 20" fill="none" xmlns="http://www.w3.org/2000/svg">
<path d="M8.51998 0.278265C8.4629 0.192667 8.38558 0.122482 8.29486 0.07394C8.20415 0.025398 8.10286 0 7.99998 0C7.8971 0 7.7958 0.025398 7.70509 0.07394C7.61438 0.122482 7.53706 0.192667 7.47998 0.278265L3.72998 5.90326C3.66735 5.99738 3.63142 6.10673 3.62602 6.21965C3.62061 6.33257 3.64594 6.44485 3.6993 6.54452C3.75266 6.64418 3.83206 6.72751 3.92903 6.78562C4.02601 6.84373 4.13693 6.87446 4.24998 6.87451H4.37248L1.84498 10.9183C1.78585 11.0129 1.75312 11.1216 1.75019 11.2331C1.74726 11.3446 1.77424 11.4549 1.82833 11.5525C1.88241 11.6501 1.96163 11.7314 2.05775 11.788C2.15388 11.8447 2.26341 11.8745 2.37498 11.8745H2.61373L0.566229 15.9695C0.518481 16.0648 0.495894 16.1707 0.500613 16.2772C0.505333 16.3837 0.537202 16.4872 0.593193 16.5779C0.649185 16.6685 0.727437 16.7434 0.820514 16.7953C0.91359 16.8472 1.0184 16.8745 1.12498 16.8745H6.74998V19.9995H9.24998V16.8745H14.875C14.9816 16.8745 15.0864 16.8472 15.1794 16.7953C15.2725 16.7434 15.3508 16.6685 15.4068 16.5779C15.4628 16.4872 15.4946 16.3837 15.4993 16.2772C15.5041 16.1707 15.4815 16.0648 15.4337 15.9695L13.3875 11.8745H13.6262C13.7378 11.8745 13.8473 11.8447 13.9435 11.788C14.0396 11.7314 14.1188 11.6501 14.1729 11.5525C14.227 11.4549 14.2539 11.3446 14.251 11.2331C14.2481 11.1216 14.2154 11.0129 14.1562 10.9183L11.6275 6.87451H11.75C11.863 6.87446 11.974 6.84373 12.0709 6.78562C12.1679 6.72751 12.2473 6.64418 12.3007 6.54452C12.354 6.44485 12.3793 6.33257 12.3739 6.21965C12.3685 6.10673 12.3326 5.99738 12.27 5.90326L8.51998 0.278265Z" fill="#008AA7"/>
</svg>
